solid csg.js
facet normal 0.9951847266721968 -0.0980171403295607 0
outer loop
vertex 19.61570560806461 -3.9018064403225647 0
vertex 20 0 0
vertex 20 0 2
endloop
endfacet
facet normal 0.9951847266721968 -0.0980171403295607 0
outer loop
vertex 19.61570560806461 -3.9018064403225647 0
vertex 20 0 2
vertex 19.61570560806461 -3.9018064403225647 2
endloop
endfacet
facet normal 0 0 -1
outer loop
vertex 18.477590650225736 -7.653668647301796 0
vertex 18.52420552475916 -7.5 0
vertex 19.61570560806461 -3.9018064403225647 0
endloop
endfacet
facet normal 0 0 -1
outer loop
vertex 18.477590650225736 -7.653668647301796 0
vertex 19.61570560806461 -3.9018064403225647 0
vertex 19.61570560806461 -3.9018064403225647 2
endloop
endfacet
facet normal 0 0 -1
outer loop
vertex 18.477590650225736 -7.653668647301796 0
vertex 19.61570560806461 -3.9018064403225647 2
vertex 18.52420552475916 -7.5 2
endloop
endfacet
facet normal 0 0 -1
outer loop
vertex 18.477590650225736 -7.653668647301796 0
vertex 18.52420552475916 -7.5 2
vertex 18.477590650225736 -7.653668647301796 2
endloop
endfacet
facet normal 0.8819212643483549 -0.4713967368259978 0
outer loop
vertex 16.629392246050905 -11.111404660392044 0
vertex 18.477590650225736 -7.653668647301796 0
vertex 18.477590650225736 -7.653668647301796 2
endloop
endfacet
facet normal 0.8819212643483549 -0.4713967368259978 0
outer loop
vertex 16.629392246050905 -11.111404660392044 0
vertex 18.477590650225736 -7.653668647301796 2
vertex 16.629392246050905 -11.111404660392044 2
endloop
endfacet
facet normal 0.773010453362737 -0.6343932841636455 0
outer loop
vertex 14.142135623730951 -14.14213562373095 0
vertex 16.629392246050905 -11.111404660392044 0
vertex 16.629392246050905 -11.111404660392044 2
endloop
endfacet
facet normal 0.773010453362737 -0.6343932841636455 0
outer loop
vertex 14.142135623730951 -14.14213562373095 0
vertex 16.629392246050905 -11.111404660392044 2
vertex 14.142135623730951 -14.14213562373095 2
endloop
endfacet
facet normal 0.6343932841636458 -0.7730104533627367 0
outer loop
vertex 11.111404660392045 -16.629392246050905 0
vertex 14.142135623730951 -14.14213562373095 0
vertex 14.142135623730951 -14.14213562373095 2
endloop
endfacet
facet normal 0.6343932841636458 -0.7730104533627367 0
outer loop
vertex 11.111404660392045 -16.629392246050905 0
vertex 14.142135623730951 -14.14213562373095 2
vertex 11.111404660392045 -16.629392246050905 2
endloop
endfacet
facet normal 0.4713967368259977 -0.8819212643483549 0
outer loop
vertex 7.653668647301797 -18.477590650225736 0
vertex 11.111404660392045 -16.629392246050905 0
vertex 11.111404660392045 -16.629392246050905 2
endloop
endfacet
facet normal 0.4713967368259977 -0.8819212643483549 0
outer loop
vertex 7.653668647301797 -18.477590650225736 0
vertex 11.111404660392045 -16.629392246050905 2
vertex 7.653668647301797 -18.477590650225736 2
endloop
endfacet
facet normal 0.2902846772544621 -0.9569403357322089 0
outer loop
vertex 3.9018064403225665 -19.61570560806461 0
vertex 7.653668647301797 -18.477590650225736 0
vertex 7.653668647301797 -18.477590650225736 2
endloop
endfacet
facet normal 0.2902846772544621 -0.9569403357322089 0
outer loop
vertex 3.9018064403225665 -19.61570560806461 0
vertex 7.653668647301797 -18.477590650225736 2
vertex 3.9018064403225665 -19.61570560806461 2
endloop
endfacet
facet normal 0.0980171403295607 -0.9951847266721968 0
outer loop
vertex 1.2246467991473533e-15 -20 0
vertex 3.9018064403225665 -19.61570560806461 0
vertex 3.9018064403225665 -19.61570560806461 2
endloop
endfacet
facet normal 0.0980171403295607 -0.9951847266721968 0
outer loop
vertex 1.2246467991473533e-15 -20 0
vertex 3.9018064403225665 -19.61570560806461 2
vertex 1.2246467991473533e-15 -20 2
endloop
endfacet
facet normal -0.09801714032955991 -0.9951847266721969 0
outer loop
vertex -3.9018064403225594 -19.615705608064612 0
vertex 1.2246467991473533e-15 -20 0
vertex 1.2246467991473533e-15 -20 2
endloop
endfacet
facet normal -0.09801714032955991 -0.9951847266721969 0
outer loop
vertex -3.9018064403225594 -19.615705608064612 0
vertex 1.2246467991473533e-15 -20 2
vertex -3.9018064403225594 -19.615705608064612 2
endloop
endfacet
facet normal -0.29028467725446266 -0.9569403357322088 0
outer loop
vertex -7.653668647301794 -18.477590650225736 0
vertex -3.9018064403225594 -19.615705608064612 0
vertex -3.9018064403225594 -19.615705608064612 2
endloop
endfacet
facet normal -0.29028467725446266 -0.9569403357322088 0
outer loop
vertex -7.653668647301794 -18.477590650225736 0
vertex -3.9018064403225594 -19.615705608064612 2
vertex -7.653668647301794 -18.477590650225736 2
endloop
endfacet
facet normal -0.471396736825998 -0.8819212643483548 0
outer loop
vertex -11.11140466039204 -16.629392246050905 0
vertex -7.653668647301794 -18.477590650225736 0
vertex -7.653668647301794 -18.477590650225736 2
endloop
endfacet
facet normal -0.471396736825998 -0.8819212643483548 0
outer loop
vertex -11.11140466039204 -16.629392246050905 0
vertex -7.653668647301794 -18.477590650225736 2
vertex -11.11140466039204 -16.629392246050905 2
endloop
endfacet
facet normal -0.6343932841636452 -0.7730104533627373 0
outer loop
vertex -14.14213562373095 -14.142135623730951 0
vertex -11.11140466039204 -16.629392246050905 0
vertex -11.11140466039204 -16.629392246050905 2
endloop
endfacet
facet normal -0.6343932841636452 -0.7730104533627373 0
outer loop
vertex -14.14213562373095 -14.142135623730951 0
vertex -11.11140466039204 -16.629392246050905 2
vertex -14.14213562373095 -14.142135623730951 2
endloop
endfacet
facet normal -0.7730104533627369 -0.6343932841636456 0
outer loop
vertex -16.629392246050905 -11.111404660392044 0
vertex -14.14213562373095 -14.142135623730951 0
vertex -14.14213562373095 -14.142135623730951 2
endloop
endfacet
facet normal -0.7730104533627369 -0.6343932841636456 0
outer loop
vertex -16.629392246050905 -11.111404660392044 0
vertex -14.14213562373095 -14.142135623730951 2
vertex -16.629392246050905 -11.111404660392044 2
endloop
endfacet
facet normal -0.8819212643483548 -0.471396736825998 0
outer loop
vertex -18.477590650225736 -7.653668647301798 0
vertex -16.629392246050905 -11.111404660392044 0
vertex -16.629392246050905 -11.111404660392044 2
endloop
endfacet
facet normal -0.8819212643483548 -0.471396736825998 0
outer loop
vertex -18.477590650225736 -7.653668647301798 0
vertex -16.629392246050905 -11.111404660392044 2
vertex -18.477590650225736 -7.653668647301798 2
endloop
endfacet
facet normal 0 0 -1
outer loop
vertex -19.61570560806461 -3.9018064403225723 0
vertex -18.52420552475916 -7.5 0
vertex -18.477590650225736 -7.653668647301798 0
endloop
endfacet
facet normal 0 0 -1
outer loop
vertex -19.61570560806461 -3.9018064403225723 0
vertex -18.477590650225736 -7.653668647301798 0
vertex -18.477590650225736 -7.653668647301798 2
endloop
endfacet
facet normal 0 0 -1
outer loop
vertex -19.61570560806461 -3.9018064403225723 0
vertex -18.477590650225736 -7.653668647301798 2
vertex -18.52420552475916 -7.5 2
endloop
endfacet
facet normal 0 0 -1
outer loop
vertex -19.61570560806461 -3.9018064403225723 0
vertex -18.52420552475916 -7.5 2
vertex -19.61570560806461 -3.9018064403225723 2
endloop
endfacet
facet normal -0.9951847266721968 -0.09801714032956059 0
outer loop
vertex -20 -2.4492935982947065e-15 0
vertex -19.61570560806461 -3.9018064403225723 0
vertex -19.61570560806461 -3.9018064403225723 2
endloop
endfacet
facet normal -0.9951847266721968 -0.09801714032956059 0
outer loop
vertex -20 -2.4492935982947065e-15 0
vertex -19.61570560806461 -3.9018064403225723 2
vertex -20 -2.4492935982947065e-15 2
endloop
endfacet
facet normal -0.9951847266721968 0.09801714032956126 0
outer loop
vertex -19.615705608064605 3.9018064403225763 0
vertex -20 -2.4492935982947065e-15 0
vertex -20 -2.4492935982947065e-15 2
endloop
endfacet
facet normal -0.9951847266721968 0.09801714032956126 0
outer loop
vertex -19.615705608064605 3.9018064403225763 0
vertex -20 -2.4492935982947065e-15 2
vertex -19.615705608064605 3.9018064403225763 2
endloop
endfacet
facet normal 0 0 -1
outer loop
vertex -18.47759065022574 7.653668647301784 0
vertex -18.52420552475916 7.5 0
vertex -19.615705608064605 3.9018064403225763 0
endloop
endfacet
facet normal 0 0 -1
outer loop
vertex -18.47759065022574 7.653668647301784 0
vertex -19.615705608064605 3.9018064403225763 0
vertex -19.615705608064605 3.9018064403225763 2
endloop
endfacet
facet normal 0 0 -1
outer loop
vertex -18.47759065022574 7.653668647301784 0
vertex -19.615705608064605 3.9018064403225763 2
vertex -18.52420552475916 7.5 2
endloop
endfacet
facet normal 0 0 -1
outer loop
vertex -18.47759065022574 7.653668647301784 0
vertex -18.52420552475916 7.5 2
vertex -18.47759065022574 7.653668647301784 2
endloop
endfacet
facet normal -0.8819212643483552 0.4713967368259974 0
outer loop
vertex -16.629392246050912 11.11140466039203 0
vertex -18.47759065022574 7.653668647301784 0
vertex -18.47759065022574 7.653668647301784 2
endloop
endfacet
facet normal -0.8819212643483552 0.4713967368259974 0
outer loop
vertex -16.629392246050912 11.11140466039203 0
vertex -18.47759065022574 7.653668647301784 2
vertex -16.629392246050912 11.11140466039203 2
endloop
endfacet
facet normal 0.8819212643483549 0.47139673682599775 0
outer loop
vertex 18.47759065022573 7.653668647301808 0
vertex 16.629392246050905 11.111404660392044 0
vertex 16.629392246050905 11.111404660392044 2
endloop
endfacet
facet normal 0.8819212643483549 0.47139673682599775 0
outer loop
vertex 18.47759065022573 7.653668647301808 0
vertex 16.629392246050905 11.111404660392044 2
vertex 18.47759065022573 7.653668647301808 2
endloop
endfacet
facet normal 0 0 -1
outer loop
vertex 19.615705608064605 3.9018064403225745 0
vertex 18.52420552475915 7.5 0
vertex 18.47759065022573 7.653668647301808 0
endloop
endfacet
facet normal 0 0 -1
outer loop
vertex 19.615705608064605 3.9018064403225745 0
vertex 18.47759065022573 7.653668647301808 0
vertex 18.47759065022573 7.653668647301808 2
endloop
endfacet
facet normal 0 0 -1
outer loop
vertex 19.615705608064605 3.9018064403225745 0
vertex 18.47759065022573 7.653668647301808 2
vertex 18.52420552475915 7.5 2
endloop
endfacet
facet normal 0 0 -1
outer loop
vertex 19.615705608064605 3.9018064403225745 0
vertex 18.52420552475915 7.5 2
vertex 19.615705608064605 3.9018064403225745 2
endloop
endfacet
facet normal 0.9951847266721968 0.09801714032956149 0
outer loop
vertex 20 0 0
vertex 19.615705608064605 3.9018064403225745 0
vertex 19.615705608064605 3.9018064403225745 2
endloop
endfacet
facet normal 0.9951847266721968 0.09801714032956149 0
outer loop
vertex 20 0 0
vertex 19.615705608064605 3.9018064403225745 2
vertex 20 0 2
endloop
endfacet
facet normal 1 0 0
outer loop
vertex -11 7.5 0
vertex -11 7.5 2
vertex -11 -7.5 2
endloop
endfacet
facet normal 1 0 0
outer loop
vertex -11 7.5 0
vertex -11 -7.5 2
vertex -11 -7.5 0
endloop
endfacet
facet normal -1 0 0
outer loop
vertex 11 -7.5 2
vertex 11 7.5 2
vertex 11 7.5 0
endloop
endfacet
facet normal -1 0 0
outer loop
vertex 11 -7.5 2
vertex 11 7.5 0
vertex 11 -7.5 0
endloop
endfacet
facet normal 0 1 0
outer loop
vertex -11 -7.5 2
vertex 11 -7.5 2
vertex 11 -7.5 0
endloop
endfacet
facet normal 0 1 0
outer loop
vertex -11 -7.5 2
vertex 11 -7.5 0
vertex -11 -7.5 0
endloop
endfacet
facet normal 0 -1 0
outer loop
vertex 11 7.5 0
vertex 11 7.5 2
vertex -11 7.5 2
endloop
endfacet
facet normal 0 -1 0
outer loop
vertex 11 7.5 0
vertex -11 7.5 2
vertex -11 7.5 0
endloop
endfacet
facet normal 0 0 -1
outer loop
vertex 5.852709660483849 69.42355841209691 0
vertex 11.480502970952701 67.7163859753386 0
vertex 16.667106990588056 64.94408836907635 0
endloop
endfacet
facet normal 0 0 -1
outer loop
vertex 5.852709660483849 69.42355841209691 0
vertex 16.667106990588056 64.94408836907635 0
vertex 21.21320343559642 61.21320343559643 0
endloop
endfacet
facet normal 0 0 -1
outer loop
vertex 5.852709660483849 69.42355841209691 0
vertex 21.21320343559642 61.21320343559643 0
vertex 24.944088369076358 56.667106990588046 0
endloop
endfacet
facet normal 0 0 -1
outer loop
vertex 5.852709660483849 69.42355841209691 0
vertex 24.944088369076358 56.667106990588046 0
vertex 27.716385975338596 51.48050297095268 0
endloop
endfacet
facet normal 0 0 -1
outer loop
vertex 5.852709660483849 69.42355841209691 0
vertex 27.716385975338596 51.48050297095268 0
vertex 29.42355841209691 45.85270966048387 0
endloop
endfacet
facet normal 0 0 -1
outer loop
vertex 5.852709660483849 69.42355841209691 0
vertex 29.42355841209691 45.85270966048387 0
vertex 30 40 0
endloop
endfacet
facet normal 0 0 -1
outer loop
vertex 5.852709660483849 69.42355841209691 0
vertex 30 40 0
vertex 12 40 0
endloop
endfacet
facet normal 0 0 -1
outer loop
vertex 5.852709660483849 69.42355841209691 0
vertex 12 40 0
vertex -12 40 0
endloop
endfacet
facet normal 0 0 -1
outer loop
vertex 5.852709660483849 69.42355841209691 0
vertex -12 40 0
vertex -30 40 0
endloop
endfacet
facet normal 0 0 -1
outer loop
vertex 5.852709660483849 69.42355841209691 0
vertex -30 40 0
vertex -29.42355841209691 45.85270966048387 0
endloop
endfacet
facet normal 0 0 -1
outer loop
vertex 5.852709660483849 69.42355841209691 0
vertex -29.42355841209691 45.85270966048387 0
vertex -27.71638597533861 51.48050297095268 0
endloop
endfacet
facet normal 0 0 -1
outer loop
vertex 5.852709660483849 69.42355841209691 0
vertex -27.71638597533861 51.48050297095268 0
vertex -24.944088369076372 56.667106990588046 0
endloop
endfacet
facet normal 0 0 -1
outer loop
vertex 5.852709660483849 69.42355841209691 0
vertex -24.944088369076372 56.667106990588046 0
vertex -21.21320343559643 61.21320343559643 0
endloop
endfacet
facet normal 0 0 -1
outer loop
vertex 5.852709660483849 69.42355841209691 0
vertex -21.21320343559643 61.21320343559643 0
vertex -16.667106990588067 64.94408836907635 0
endloop
endfacet
facet normal 0 0 -1
outer loop
vertex 5.852709660483849 69.42355841209691 0
vertex -16.667106990588067 64.94408836907635 0
vertex -11.48050297095271 67.7163859753386 0
endloop
endfacet
facet normal 0 0 -1
outer loop
vertex 5.852709660483849 69.42355841209691 0
vertex -11.48050297095271 67.7163859753386 0
vertex -5.8527096604838595 69.42355841209691 0
endloop
endfacet
facet normal 0 0 -1
outer loop
vertex 5.852709660483849 69.42355841209691 0
vertex -5.8527096604838595 69.42355841209691 0
vertex -5.510910596163089e-15 70 0
endloop
endfacet
facet normal 0 0 -1
outer loop
vertex -12 40 0
vertex -12 30 0
vertex -28.165491641647918 30 0
endloop
endfacet
facet normal 0 0 -1
outer loop
vertex -12 40 0
vertex -28.165491641647918 30 0
vertex -29.423558412096913 34.14729033951614 0
endloop
endfacet
facet normal 0 0 -1
outer loop
vertex -12 40 0
vertex -29.423558412096913 34.14729033951614 0
vertex -30 40 0
endloop
endfacet
facet normal 0 0 -1
outer loop
vertex 30 40 0
vertex 29.423558412096913 34.14729033951614 0
vertex 28.165491641647918 30 0
endloop
endfacet
facet normal 0 0 -1
outer loop
vertex 30 40 0
vertex 28.165491641647918 30 0
vertex 12.000000000000002 30 0
endloop
endfacet
facet normal 0 0 -1
outer loop
vertex 30 40 0
vertex 12.000000000000002 30 0
vertex 12 40 0
endloop
endfacet
facet normal 0 0 -1
outer loop
vertex -12 30 0
vertex 12.000000000000002 30 0
vertex 28.165491641647918 30 0
endloop
endfacet
facet normal 0 0 -1
outer loop
vertex -12 30 0
vertex 28.165491641647918 30 0
vertex 27.716385975338603 28.519497029047308 0
endloop
endfacet
facet normal 0 0 -1
outer loop
vertex -12 30 0
vertex 27.716385975338603 28.519497029047308 0
vertex 24.944088369076358 23.332893009411933 0
endloop
endfacet
facet normal 0 0 -1
outer loop
vertex -12 30 0
vertex 24.944088369076358 23.332893009411933 0
vertex 21.213203435596427 18.786796564403573 0
endloop
endfacet
facet normal 0 0 -1
outer loop
vertex -12 30 0
vertex 21.213203435596427 18.786796564403573 0
vertex 16.667106990588067 15.055911630923639 0
endloop
endfacet
facet normal 0 0 -1
outer loop
vertex -12 30 0
vertex 16.667106990588067 15.055911630923639 0
vertex 14.390764067013192 13.83918098903009 0
endloop
endfacet
facet normal 0 0 -1
outer loop
vertex -12 30 0
vertex 14.390764067013192 13.83918098903009 0
vertex -14.390764067013194 13.83918098903009 0
endloop
endfacet
facet normal 0 0 -1
outer loop
vertex -12 30 0
vertex -14.390764067013194 13.83918098903009 0
vertex -16.66710699058806 15.055911630923639 0
endloop
endfacet
facet normal 0 0 -1
outer loop
vertex -12 30 0
vertex -16.66710699058806 15.055911630923639 0
vertex -21.213203435596423 18.786796564403573 0
endloop
endfacet
facet normal 0 0 -1
outer loop
vertex -12 30 0
vertex -21.213203435596423 18.786796564403573 0
vertex -24.94408836907636 23.332893009411933 0
endloop
endfacet
facet normal 0 0 -1
outer loop
vertex -12 30 0
vertex -24.94408836907636 23.332893009411933 0
vertex -27.716385975338603 28.519497029047308 0
endloop
endfacet
facet normal 0 0 -1
outer loop
vertex -12 30 0
vertex -27.716385975338603 28.519497029047308 0
vertex -28.165491641647918 30 0
endloop
endfacet
facet normal 0 0 -1
outer loop
vertex 14.390764067013192 13.83918098903009 0
vertex 16.629392246050905 11.111404660392044 0
vertex 18.47759065022573 7.653668647301808 0
endloop
endfacet
facet normal 0 0 -1
outer loop
vertex 14.390764067013192 13.83918098903009 0
vertex 18.47759065022573 7.653668647301808 0
vertex 18.52420552475915 7.5 0
endloop
endfacet
facet normal 0 0 -1
outer loop
vertex 14.390764067013192 13.83918098903009 0
vertex 18.52420552475915 7.5 0
vertex 11 7.5 0
endloop
endfacet
facet normal 0 0 -1
outer loop
vertex 14.390764067013192 13.83918098903009 0
vertex 11 7.5 0
vertex -11 7.5 0
endloop
endfacet
facet normal 0 0 -1
outer loop
vertex 14.390764067013192 13.83918098903009 0
vertex -11 7.5 0
vertex -18.52420552475916 7.5 0
endloop
endfacet
facet normal 0 0 -1
outer loop
vertex 14.390764067013192 13.83918098903009 0
vertex -18.52420552475916 7.5 0
vertex -18.47759065022574 7.653668647301784 0
endloop
endfacet
facet normal 0 0 -1
outer loop
vertex 14.390764067013192 13.83918098903009 0
vertex -18.47759065022574 7.653668647301784 0
vertex -16.629392246050912 11.11140466039203 0
endloop
endfacet
facet normal 0 0 -1
outer loop
vertex 14.390764067013192 13.83918098903009 0
vertex -16.629392246050912 11.11140466039203 0
vertex -14.390764067013194 13.83918098903009 0
endloop
endfacet
facet normal 0 0 -1
outer loop
vertex -11 7.5 0
vertex -11 -7.5 0
vertex -18.52420552475916 -7.5 0
endloop
endfacet
facet normal 0 0 -1
outer loop
vertex -11 7.5 0
vertex -18.52420552475916 -7.5 0
vertex -19.61570560806461 -3.9018064403225723 0
endloop
endfacet
facet normal 0 0 -1
outer loop
vertex -11 7.5 0
vertex -19.61570560806461 -3.9018064403225723 0
vertex -20 -2.4492935982947065e-15 0
endloop
endfacet
facet normal 0 0 -1
outer loop
vertex -11 7.5 0
vertex -20 -2.4492935982947065e-15 0
vertex -19.615705608064605 3.9018064403225763 0
endloop
endfacet
facet normal 0 0 -1
outer loop
vertex -11 7.5 0
vertex -19.615705608064605 3.9018064403225763 0
vertex -18.52420552475916 7.5 0
endloop
endfacet
facet normal 0 0 -1
outer loop
vertex 18.52420552475915 7.5 0
vertex 19.615705608064605 3.9018064403225745 0
vertex 20 0 0
endloop
endfacet
facet normal 0 0 -1
outer loop
vertex 18.52420552475915 7.5 0
vertex 20 0 0
vertex 19.61570560806461 -3.9018064403225647 0
endloop
endfacet
facet normal 0 0 -1
outer loop
vertex 18.52420552475915 7.5 0
vertex 19.61570560806461 -3.9018064403225647 0
vertex 18.52420552475916 -7.5 0
endloop
endfacet
facet normal 0 0 -1
outer loop
vertex 18.52420552475915 7.5 0
vertex 18.52420552475916 -7.5 0
vertex 11 -7.5 0
endloop
endfacet
facet normal 0 0 -1
outer loop
vertex 18.52420552475915 7.5 0
vertex 11 -7.5 0
vertex 11 7.5 0
endloop
endfacet
facet normal 0 0 -1
outer loop
vertex -11 -7.5 0
vertex 11 -7.5 0
vertex 18.52420552475916 -7.5 0
endloop
endfacet
facet normal 0 0 -1
outer loop
vertex -11 -7.5 0
vertex 18.52420552475916 -7.5 0
vertex 18.477590650225736 -7.653668647301796 0
endloop
endfacet
facet normal 0 0 -1
outer loop
vertex -11 -7.5 0
vertex 18.477590650225736 -7.653668647301796 0
vertex 16.629392246050905 -11.111404660392044 0
endloop
endfacet
facet normal 0 0 -1
outer loop
vertex -11 -7.5 0
vertex 16.629392246050905 -11.111404660392044 0
vertex 14.142135623730951 -14.14213562373095 0
endloop
endfacet
facet normal 0 0 -1
outer loop
vertex -11 -7.5 0
vertex 14.142135623730951 -14.14213562373095 0
vertex 11.111404660392045 -16.629392246050905 0
endloop
endfacet
facet normal 0 0 -1
outer loop
vertex -11 -7.5 0
vertex 11.111404660392045 -16.629392246050905 0
vertex 7.653668647301797 -18.477590650225736 0
endloop
endfacet
facet normal 0 0 -1
outer loop
vertex -11 -7.5 0
vertex 7.653668647301797 -18.477590650225736 0
vertex 3.9018064403225665 -19.61570560806461 0
endloop
endfacet
facet normal 0 0 -1
outer loop
vertex -11 -7.5 0
vertex 3.9018064403225665 -19.61570560806461 0
vertex 1.2246467991473533e-15 -20 0
endloop
endfacet
facet normal 0 0 -1
outer loop
vertex -11 -7.5 0
vertex 1.2246467991473533e-15 -20 0
vertex -3.9018064403225594 -19.615705608064612 0
endloop
endfacet
facet normal 0 0 -1
outer loop
vertex -11 -7.5 0
vertex -3.9018064403225594 -19.615705608064612 0
vertex -7.653668647301794 -18.477590650225736 0
endloop
endfacet
facet normal 0 0 -1
outer loop
vertex -11 -7.5 0
vertex -7.653668647301794 -18.477590650225736 0
vertex -11.11140466039204 -16.629392246050905 0
endloop
endfacet
facet normal 0 0 -1
outer loop
vertex -11 -7.5 0
vertex -11.11140466039204 -16.629392246050905 0
vertex -14.14213562373095 -14.142135623730951 0
endloop
endfacet
facet normal 0 0 -1
outer loop
vertex -11 -7.5 0
vertex -14.14213562373095 -14.142135623730951 0
vertex -16.629392246050905 -11.111404660392044 0
endloop
endfacet
facet normal 0 0 -1
outer loop
vertex -11 -7.5 0
vertex -16.629392246050905 -11.111404660392044 0
vertex -18.477590650225736 -7.653668647301798 0
endloop
endfacet
facet normal 0 0 -1
outer loop
vertex -11 -7.5 0
vertex -18.477590650225736 -7.653668647301798 0
vertex -18.52420552475916 -7.5 0
endloop
endfacet
facet normal 0 0 1
outer loop
vertex 3.9018064403225665 -19.61570560806461 2
vertex 7.653668647301797 -18.477590650225736 2
vertex 11.111404660392045 -16.629392246050905 2
endloop
endfacet
facet normal 0 0 1
outer loop
vertex 3.9018064403225665 -19.61570560806461 2
vertex 11.111404660392045 -16.629392246050905 2
vertex 14.142135623730951 -14.14213562373095 2
endloop
endfacet
facet normal 0 0 1
outer loop
vertex 3.9018064403225665 -19.61570560806461 2
vertex 14.142135623730951 -14.14213562373095 2
vertex 16.629392246050905 -11.111404660392044 2
endloop
endfacet
facet normal 0 0 1
outer loop
vertex 3.9018064403225665 -19.61570560806461 2
vertex 16.629392246050905 -11.111404660392044 2
vertex 18.477590650225736 -7.653668647301796 2
endloop
endfacet
facet normal 0 0 1
outer loop
vertex 3.9018064403225665 -19.61570560806461 2
vertex 18.477590650225736 -7.653668647301796 2
vertex 18.52420552475916 -7.5 2
endloop
endfacet
facet normal 0 0 1
outer loop
vertex 3.9018064403225665 -19.61570560806461 2
vertex 18.52420552475916 -7.5 2
vertex 11 -7.5 2
endloop
endfacet
facet normal 0 0 1
outer loop
vertex 3.9018064403225665 -19.61570560806461 2
vertex 11 -7.5 2
vertex -11 -7.5 2
endloop
endfacet
facet normal 0 0 1
outer loop
vertex 3.9018064403225665 -19.61570560806461 2
vertex -11 -7.5 2
vertex -18.52420552475916 -7.5 2
endloop
endfacet
facet normal 0 0 1
outer loop
vertex 3.9018064403225665 -19.61570560806461 2
vertex -18.52420552475916 -7.5 2
vertex -18.477590650225736 -7.653668647301798 2
endloop
endfacet
facet normal 0 0 1
outer loop
vertex 3.9018064403225665 -19.61570560806461 2
vertex -18.477590650225736 -7.653668647301798 2
vertex -16.629392246050905 -11.111404660392044 2
endloop
endfacet
facet normal 0 0 1
outer loop
vertex 3.9018064403225665 -19.61570560806461 2
vertex -16.629392246050905 -11.111404660392044 2
vertex -14.14213562373095 -14.142135623730951 2
endloop
endfacet
facet normal 0 0 1
outer loop
vertex 3.9018064403225665 -19.61570560806461 2
vertex -14.14213562373095 -14.142135623730951 2
vertex -11.11140466039204 -16.629392246050905 2
endloop
endfacet
facet normal 0 0 1
outer loop
vertex 3.9018064403225665 -19.61570560806461 2
vertex -11.11140466039204 -16.629392246050905 2
vertex -7.653668647301794 -18.477590650225736 2
endloop
endfacet
facet normal 0 0 1
outer loop
vertex 3.9018064403225665 -19.61570560806461 2
vertex -7.653668647301794 -18.477590650225736 2
vertex -3.9018064403225594 -19.615705608064612 2
endloop
endfacet
facet normal 0 0 1
outer loop
vertex 3.9018064403225665 -19.61570560806461 2
vertex -3.9018064403225594 -19.615705608064612 2
vertex 1.2246467991473533e-15 -20 2
endloop
endfacet
facet normal 0 0 1
outer loop
vertex -11 -7.5 2
vertex -11 7.5 2
vertex -18.52420552475916 7.5 2
endloop
endfacet
facet normal 0 0 1
outer loop
vertex -11 -7.5 2
vertex -18.52420552475916 7.5 2
vertex -19.615705608064605 3.9018064403225763 2
endloop
endfacet
facet normal 0 0 1
outer loop
vertex -11 -7.5 2
vertex -19.615705608064605 3.9018064403225763 2
vertex -20 -2.4492935982947065e-15 2
endloop
endfacet
facet normal 0 0 1
outer loop
vertex -11 -7.5 2
vertex -20 -2.4492935982947065e-15 2
vertex -19.61570560806461 -3.9018064403225723 2
endloop
endfacet
facet normal 0 0 1
outer loop
vertex -11 -7.5 2
vertex -19.61570560806461 -3.9018064403225723 2
vertex -18.52420552475916 -7.5 2
endloop
endfacet
facet normal 0 0 1
outer loop
vertex 18.52420552475916 -7.5 2
vertex 19.61570560806461 -3.9018064403225647 2
vertex 20 0 2
endloop
endfacet
facet normal 0 0 1
outer loop
vertex 18.52420552475916 -7.5 2
vertex 20 0 2
vertex 19.615705608064605 3.9018064403225745 2
endloop
endfacet
facet normal 0 0 1
outer loop
vertex 18.52420552475916 -7.5 2
vertex 19.615705608064605 3.9018064403225745 2
vertex 18.52420552475915 7.5 2
endloop
endfacet
facet normal 0 0 1
outer loop
vertex 18.52420552475916 -7.5 2
vertex 18.52420552475915 7.5 2
vertex 11 7.5 2
endloop
endfacet
facet normal 0 0 1
outer loop
vertex 18.52420552475916 -7.5 2
vertex 11 7.5 2
vertex 11 -7.5 2
endloop
endfacet
facet normal 0 0 1
outer loop
vertex -11 7.5 2
vertex 11 7.5 2
vertex 18.52420552475915 7.5 2
endloop
endfacet
facet normal 0 0 1
outer loop
vertex -11 7.5 2
vertex 18.52420552475915 7.5 2
vertex 18.47759065022573 7.653668647301808 2
endloop
endfacet
facet normal 0 0 1
outer loop
vertex -11 7.5 2
vertex 18.47759065022573 7.653668647301808 2
vertex 16.629392246050905 11.111404660392044 2
endloop
endfacet
facet normal 0 0 1
outer loop
vertex -11 7.5 2
vertex 16.629392246050905 11.111404660392044 2
vertex 14.39076406701319 13.83918098903009 2
endloop
endfacet
facet normal 0 0 1
outer loop
vertex -11 7.5 2
vertex 14.39076406701319 13.83918098903009 2
vertex -14.390764067013198 13.83918098903009 2
endloop
endfacet
facet normal 0 0 1
outer loop
vertex -11 7.5 2
vertex -14.390764067013198 13.83918098903009 2
vertex -16.629392246050912 11.11140466039203 2
endloop
endfacet
facet normal 0 0 1
outer loop
vertex -11 7.5 2
vertex -16.629392246050912 11.11140466039203 2
vertex -18.47759065022574 7.653668647301784 2
endloop
endfacet
facet normal 0 0 1
outer loop
vertex -11 7.5 2
vertex -18.47759065022574 7.653668647301784 2
vertex -18.52420552475916 7.5 2
endloop
endfacet
facet normal 0 0 1
outer loop
vertex 14.39076406701319 13.83918098903009 2
vertex 16.667106990588067 15.055911630923639 2
vertex 21.213203435596427 18.786796564403573 2
endloop
endfacet
facet normal 0 0 1
outer loop
vertex 14.39076406701319 13.83918098903009 2
vertex 21.213203435596427 18.786796564403573 2
vertex 24.944088369076358 23.332893009411933 2
endloop
endfacet
facet normal 0 0 1
outer loop
vertex 14.39076406701319 13.83918098903009 2
vertex 24.944088369076358 23.332893009411933 2
vertex 27.716385975338603 28.519497029047308 2
endloop
endfacet
facet normal 0 0 1
outer loop
vertex 14.39076406701319 13.83918098903009 2
vertex 27.716385975338603 28.519497029047308 2
vertex 28.165491641647918 30 2
endloop
endfacet
facet normal 0 0 1
outer loop
vertex 14.39076406701319 13.83918098903009 2
vertex 28.165491641647918 30 2
vertex 12 30 2
endloop
endfacet
facet normal 0 0 1
outer loop
vertex 14.39076406701319 13.83918098903009 2
vertex 12 30 2
vertex -12 30 2
endloop
endfacet
facet normal 0 0 1
outer loop
vertex 14.39076406701319 13.83918098903009 2
vertex -12 30 2
vertex -28.165491641647918 30 2
endloop
endfacet
facet normal 0 0 1
outer loop
vertex 14.39076406701319 13.83918098903009 2
vertex -28.165491641647918 30 2
vertex -27.716385975338603 28.519497029047308 2
endloop
endfacet
facet normal 0 0 1
outer loop
vertex 14.39076406701319 13.83918098903009 2
vertex -27.716385975338603 28.519497029047308 2
vertex -24.94408836907636 23.332893009411933 2
endloop
endfacet
facet normal 0 0 1
outer loop
vertex 14.39076406701319 13.83918098903009 2
vertex -24.94408836907636 23.332893009411933 2
vertex -21.213203435596423 18.786796564403573 2
endloop
endfacet
facet normal 0 0 1
outer loop
vertex 14.39076406701319 13.83918098903009 2
vertex -21.213203435596423 18.786796564403573 2
vertex -16.66710699058806 15.055911630923639 2
endloop
endfacet
facet normal 0 0 1
outer loop
vertex 14.39076406701319 13.83918098903009 2
vertex -16.66710699058806 15.055911630923639 2
vertex -14.390764067013198 13.83918098903009 2
endloop
endfacet
facet normal 0 0 1
outer loop
vertex -12 30 2
vertex -12 40 2
vertex -30 40 2
endloop
endfacet
facet normal 0 0 1
outer loop
vertex -12 30 2
vertex -30 40 2
vertex -29.423558412096913 34.14729033951614 2
endloop
endfacet
facet normal 0 0 1
outer loop
vertex -12 30 2
vertex -29.423558412096913 34.14729033951614 2
vertex -28.165491641647918 30 2
endloop
endfacet
facet normal 0 0 1
outer loop
vertex 28.165491641647918 30 2
vertex 29.423558412096913 34.14729033951614 2
vertex 30 40 2
endloop
endfacet
facet normal 0 0 1
outer loop
vertex 28.165491641647918 30 2
vertex 30 40 2
vertex 12 40 2
endloop
endfacet
facet normal 0 0 1
outer loop
vertex 28.165491641647918 30 2
vertex 12 40 2
vertex 12 30 2
endloop
endfacet
facet normal 0 0 1
outer loop
vertex -12 40 2
vertex 12 40 2
vertex 30 40 2
endloop
endfacet
facet normal 0 0 1
outer loop
vertex -12 40 2
vertex 30 40 2
vertex 29.42355841209691 45.85270966048387 2
endloop
endfacet
facet normal 0 0 1
outer loop
vertex -12 40 2
vertex 29.42355841209691 45.85270966048387 2
vertex 27.716385975338596 51.48050297095268 2
endloop
endfacet
facet normal 0 0 1
outer loop
vertex -12 40 2
vertex 27.716385975338596 51.48050297095268 2
vertex 24.944088369076358 56.667106990588046 2
endloop
endfacet
facet normal 0 0 1
outer loop
vertex -12 40 2
vertex 24.944088369076358 56.667106990588046 2
vertex 21.21320343559642 61.21320343559643 2
endloop
endfacet
facet normal 0 0 1
outer loop
vertex -12 40 2
vertex 21.21320343559642 61.21320343559643 2
vertex 16.667106990588056 64.94408836907635 2
endloop
endfacet
facet normal 0 0 1
outer loop
vertex -12 40 2
vertex 16.667106990588056 64.94408836907635 2
vertex 11.480502970952701 67.7163859753386 2
endloop
endfacet
facet normal 0 0 1
outer loop
vertex -12 40 2
vertex 11.480502970952701 67.7163859753386 2
vertex 5.852709660483849 69.42355841209691 2
endloop
endfacet
facet normal 0 0 1
outer loop
vertex -12 40 2
vertex 5.852709660483849 69.42355841209691 2
vertex -5.329070518200751e-15 70 2
endloop
endfacet
facet normal 0 0 1
outer loop
vertex -12 40 2
vertex -5.329070518200751e-15 70 2
vertex -5.8527096604838595 69.42355841209691 2
endloop
endfacet
facet normal 0 0 1
outer loop
vertex -12 40 2
vertex -5.8527096604838595 69.42355841209691 2
vertex -11.48050297095271 67.7163859753386 2
endloop
endfacet
facet normal 0 0 1
outer loop
vertex -12 40 2
vertex -11.48050297095271 67.7163859753386 2
vertex -16.667106990588067 64.94408836907635 2
endloop
endfacet
facet normal 0 0 1
outer loop
vertex -12 40 2
vertex -16.667106990588067 64.94408836907635 2
vertex -21.21320343559643 61.21320343559643 2
endloop
endfacet
facet normal 0 0 1
outer loop
vertex -12 40 2
vertex -21.21320343559643 61.21320343559643 2
vertex -24.944088369076372 56.667106990588046 2
endloop
endfacet
facet normal 0 0 1
outer loop
vertex -12 40 2
vertex -24.944088369076372 56.667106990588046 2
vertex -27.71638597533861 51.48050297095268 2
endloop
endfacet
facet normal 0 0 1
outer loop
vertex -12 40 2
vertex -27.71638597533861 51.48050297095268 2
vertex -29.42355841209691 45.85270966048387 2
endloop
endfacet
facet normal 0 0 1
outer loop
vertex -12 40 2
vertex -29.42355841209691 45.85270966048387 2
vertex -30 40 2
endloop
endfacet
facet normal -0.773010453362738 0.6343932841636443 0
outer loop
vertex -16.629392246050912 11.11140466039203 2
vertex -14.390764067013198 13.83918098903009 2
vertex -14.390764067013194 13.83918098903009 0
endloop
endfacet
facet normal -0.773010453362738 0.6343932841636443 0
outer loop
vertex -16.629392246050912 11.11140466039203 2
vertex -14.390764067013194 13.83918098903009 0
vertex -16.629392246050912 11.11140466039203 0
endloop
endfacet
facet normal 0.7730104533627371 0.6343932841636455 0
outer loop
vertex 14.39076406701319 13.83918098903009 2
vertex 16.629392246050905 11.111404660392044 2
vertex 16.629392246050905 11.111404660392044 0
endloop
endfacet
facet normal 0.7730104533627371 0.6343932841636455 0
outer loop
vertex 14.39076406701319 13.83918098903009 2
vertex 16.629392246050905 11.111404660392044 0
vertex 14.390764067013192 13.83918098903009 0
endloop
endfacet
facet normal 0.9951847266721969 -0.09801714032955972 0
outer loop
vertex 29.423558412096913 34.14729033951614 0
vertex 30 40 0
vertex 30 40 2
endloop
endfacet
facet normal 0.9951847266721969 -0.09801714032955972 0
outer loop
vertex 29.423558412096913 34.14729033951614 0
vertex 30 40 2
vertex 29.423558412096913 34.14729033951614 2
endloop
endfacet
facet normal 0 0 -1
outer loop
vertex 27.716385975338603 28.519497029047308 0
vertex 28.165491641647918 30 0
vertex 29.423558412096913 34.14729033951614 0
endloop
endfacet
facet normal 0 0 -1
outer loop
vertex 27.716385975338603 28.519497029047308 0
vertex 29.423558412096913 34.14729033951614 0
vertex 29.423558412096913 34.14729033951614 2
endloop
endfacet
facet normal 0 0 -1
outer loop
vertex 27.716385975338603 28.519497029047308 0
vertex 29.423558412096913 34.14729033951614 2
vertex 28.165491641647918 30 2
endloop
endfacet
facet normal 0 0 -1
outer loop
vertex 27.716385975338603 28.519497029047308 0
vertex 28.165491641647918 30 2
vertex 27.716385975338603 28.519497029047308 2
endloop
endfacet
facet normal 0.8819212643483554 -0.4713967368259972 0
outer loop
vertex 24.944088369076358 23.332893009411933 0
vertex 27.716385975338603 28.519497029047308 0
vertex 27.716385975338603 28.519497029047308 2
endloop
endfacet
facet normal 0.8819212643483554 -0.4713967368259972 0
outer loop
vertex 24.944088369076358 23.332893009411933 0
vertex 27.716385975338603 28.519497029047308 2
vertex 24.944088369076358 23.332893009411933 2
endloop
endfacet
facet normal 0.7730104533627364 -0.6343932841636462 0
outer loop
vertex 21.213203435596427 18.786796564403573 0
vertex 24.944088369076358 23.332893009411933 0
vertex 24.944088369076358 23.332893009411933 2
endloop
endfacet
facet normal 0.7730104533627364 -0.6343932841636462 0
outer loop
vertex 21.213203435596427 18.786796564403573 0
vertex 24.944088369076358 23.332893009411933 2
vertex 21.213203435596427 18.786796564403573 2
endloop
endfacet
facet normal 0.6343932841636462 -0.7730104533627363 0
outer loop
vertex 16.667106990588067 15.055911630923639 0
vertex 21.213203435596427 18.786796564403573 0
vertex 21.213203435596427 18.786796564403573 2
endloop
endfacet
facet normal 0.6343932841636462 -0.7730104533627363 0
outer loop
vertex 16.667106990588067 15.055911630923639 0
vertex 21.213203435596427 18.786796564403573 2
vertex 16.667106990588067 15.055911630923639 2
endloop
endfacet
facet normal -0.6343932841636462 -0.7730104533627363 0
outer loop
vertex -21.213203435596423 18.786796564403573 0
vertex -16.66710699058806 15.055911630923639 0
vertex -16.66710699058806 15.055911630923639 2
endloop
endfacet
facet normal -0.6343932841636462 -0.7730104533627363 0
outer loop
vertex -21.213203435596423 18.786796564403573 0
vertex -16.66710699058806 15.055911630923639 2
vertex -21.213203435596423 18.786796564403573 2
endloop
endfacet
facet normal -0.7730104533627364 -0.6343932841636462 0
outer loop
vertex -24.94408836907636 23.332893009411933 0
vertex -21.213203435596423 18.786796564403573 0
vertex -21.213203435596423 18.786796564403573 2
endloop
endfacet
facet normal -0.7730104533627364 -0.6343932841636462 0
outer loop
vertex -24.94408836907636 23.332893009411933 0
vertex -21.213203435596423 18.786796564403573 2
vertex -24.94408836907636 23.332893009411933 2
endloop
endfacet
facet normal -0.8819212643483545 -0.47139673682599864 0
outer loop
vertex -27.716385975338603 28.519497029047308 0
vertex -24.94408836907636 23.332893009411933 0
vertex -24.94408836907636 23.332893009411933 2
endloop
endfacet
facet normal -0.8819212643483545 -0.47139673682599864 0
outer loop
vertex -27.716385975338603 28.519497029047308 0
vertex -24.94408836907636 23.332893009411933 2
vertex -27.716385975338603 28.519497029047308 2
endloop
endfacet
facet normal 0 0 -1
outer loop
vertex -29.423558412096913 34.14729033951614 0
vertex -28.165491641647918 30 0
vertex -27.716385975338603 28.519497029047308 0
endloop
endfacet
facet normal 0 0 -1
outer loop
vertex -29.423558412096913 34.14729033951614 0
vertex -27.716385975338603 28.519497029047308 0
vertex -27.716385975338603 28.519497029047308 2
endloop
endfacet
facet normal 0 0 -1
outer loop
vertex -29.423558412096913 34.14729033951614 0
vertex -27.716385975338603 28.519497029047308 2
vertex -28.165491641647918 30 2
endloop
endfacet
facet normal 0 0 -1
outer loop
vertex -29.423558412096913 34.14729033951614 0
vertex -28.165491641647918 30 2
vertex -29.423558412096913 34.14729033951614 2
endloop
endfacet
facet normal -0.9951847266721969 -0.09801714032955972 0
outer loop
vertex -30 40 0
vertex -29.423558412096913 34.14729033951614 0
vertex -29.423558412096913 34.14729033951614 2
endloop
endfacet
facet normal -0.9951847266721969 -0.09801714032955972 0
outer loop
vertex -30 40 0
vertex -29.423558412096913 34.14729033951614 2
vertex -30 40 2
endloop
endfacet
facet normal -0.9951847266721969 0.09801714032955972 0
outer loop
vertex -29.42355841209691 45.85270966048387 0
vertex -30 40 0
vertex -30 40 2
endloop
endfacet
facet normal -0.9951847266721969 0.09801714032955972 0
outer loop
vertex -29.42355841209691 45.85270966048387 0
vertex -30 40 2
vertex -29.42355841209691 45.85270966048387 2
endloop
endfacet
facet normal -0.9569403357322095 0.29028467725446094 0
outer loop
vertex -27.71638597533861 51.48050297095268 0
vertex -29.42355841209691 45.85270966048387 0
vertex -29.42355841209691 45.85270966048387 2
endloop
endfacet
facet normal -0.9569403357322095 0.29028467725446094 0
outer loop
vertex -27.71638597533861 51.48050297095268 0
vertex -29.42355841209691 45.85270966048387 2
vertex -27.71638597533861 51.48050297095268 2
endloop
endfacet
facet normal -0.8819212643483554 0.4713967368259972 0
outer loop
vertex -24.944088369076372 56.667106990588046 0
vertex -27.71638597533861 51.48050297095268 0
vertex -27.71638597533861 51.48050297095268 2
endloop
endfacet
facet normal -0.8819212643483554 0.4713967368259972 0
outer loop
vertex -24.944088369076372 56.667106990588046 0
vertex -27.71638597533861 51.48050297095268 2
vertex -24.944088369076372 56.667106990588046 2
endloop
endfacet
facet normal -0.7730104533627363 0.6343932841636462 0
outer loop
vertex -21.21320343559643 61.21320343559643 0
vertex -24.944088369076372 56.667106990588046 0
vertex -24.944088369076372 56.667106990588046 2
endloop
endfacet
facet normal -0.7730104533627363 0.6343932841636462 0
outer loop
vertex -21.21320343559643 61.21320343559643 0
vertex -24.944088369076372 56.667106990588046 2
vertex -21.21320343559643 61.21320343559643 2
endloop
endfacet
facet normal -0.6343932841636484 0.7730104533627347 0
outer loop
vertex -16.667106990588067 64.94408836907635 0
vertex -21.21320343559643 61.21320343559643 0
vertex -21.21320343559643 61.21320343559643 2
endloop
endfacet
facet normal -0.6343932841636484 0.7730104533627347 0
outer loop
vertex -16.667106990588067 64.94408836907635 0
vertex -21.21320343559643 61.21320343559643 2
vertex -16.667106990588067 64.94408836907635 2
endloop
endfacet
facet normal -0.4713967368260062 0.8819212643483504 0
outer loop
vertex -11.48050297095271 67.7163859753386 0
vertex -16.667106990588067 64.94408836907635 0
vertex -16.667106990588067 64.94408836907635 2
endloop
endfacet
facet normal -0.4713967368260062 0.8819212643483504 0
outer loop
vertex -11.48050297095271 67.7163859753386 0
vertex -16.667106990588067 64.94408836907635 2
vertex -11.48050297095271 67.7163859753386 2
endloop
endfacet
facet normal -0.29028467725446216 0.9569403357322089 0
outer loop
vertex -5.8527096604838595 69.42355841209691 0
vertex -11.48050297095271 67.7163859753386 0
vertex -11.48050297095271 67.7163859753386 2
endloop
endfacet
facet normal -0.29028467725446216 0.9569403357322089 0
outer loop
vertex -5.8527096604838595 69.42355841209691 0
vertex -11.48050297095271 67.7163859753386 2
vertex -5.8527096604838595 69.42355841209691 2
endloop
endfacet
facet normal -0.09801714032955999 0.9951847266721969 0
outer loop
vertex -5.510910596163089e-15 70 0
vertex -5.8527096604838595 69.42355841209691 0
vertex -5.8527096604838595 69.42355841209691 2
endloop
endfacet
facet normal -0.09801714032955999 0.9951847266721969 0
outer loop
vertex -5.510910596163089e-15 70 0
vertex -5.8527096604838595 69.42355841209691 2
vertex -5.329070518200751e-15 70 2
endloop
endfacet
facet normal 0.09801714032956002 0.9951847266721969 0
outer loop
vertex 5.852709660483849 69.42355841209691 0
vertex -5.510910596163089e-15 70 0
vertex -5.329070518200751e-15 70 2
endloop
endfacet
facet normal 0.09801714032956002 0.9951847266721969 0
outer loop
vertex 5.852709660483849 69.42355841209691 0
vertex -5.329070518200751e-15 70 2
vertex 5.852709660483849 69.42355841209691 2
endloop
endfacet
facet normal 0.2902846772544619 0.9569403357322089 0
outer loop
vertex 11.480502970952701 67.7163859753386 0
vertex 5.852709660483849 69.42355841209691 0
vertex 5.852709660483849 69.42355841209691 2
endloop
endfacet
facet normal 0.2902846772544619 0.9569403357322089 0
outer loop
vertex 11.480502970952701 67.7163859753386 0
vertex 5.852709660483849 69.42355841209691 2
vertex 11.480502970952701 67.7163859753386 2
endloop
endfacet
facet normal 0.4713967368260062 0.8819212643483504 0
outer loop
vertex 16.667106990588056 64.94408836907635 0
vertex 11.480502970952701 67.7163859753386 0
vertex 11.480502970952701 67.7163859753386 2
endloop
endfacet
facet normal 0.4713967368260062 0.8819212643483504 0
outer loop
vertex 16.667106990588056 64.94408836907635 0
vertex 11.480502970952701 67.7163859753386 2
vertex 16.667106990588056 64.94408836907635 2
endloop
endfacet
facet normal 0.6343932841636484 0.7730104533627347 0
outer loop
vertex 21.21320343559642 61.21320343559643 0
vertex 16.667106990588056 64.94408836907635 0
vertex 16.667106990588056 64.94408836907635 2
endloop
endfacet
facet normal 0.6343932841636484 0.7730104533627347 0
outer loop
vertex 21.21320343559642 61.21320343559643 0
vertex 16.667106990588056 64.94408836907635 2
vertex 21.21320343559642 61.21320343559643 2
endloop
endfacet
facet normal 0.7730104533627363 0.6343932841636462 0
outer loop
vertex 24.944088369076358 56.667106990588046 0
vertex 21.21320343559642 61.21320343559643 0
vertex 21.21320343559642 61.21320343559643 2
endloop
endfacet
facet normal 0.7730104533627363 0.6343932841636462 0
outer loop
vertex 24.944088369076358 56.667106990588046 0
vertex 21.21320343559642 61.21320343559643 2
vertex 24.944088369076358 56.667106990588046 2
endloop
endfacet
facet normal 0.8819212643483554 0.4713967368259972 0
outer loop
vertex 27.716385975338596 51.48050297095268 0
vertex 24.944088369076358 56.667106990588046 0
vertex 24.944088369076358 56.667106990588046 2
endloop
endfacet
facet normal 0.8819212643483554 0.4713967368259972 0
outer loop
vertex 27.716385975338596 51.48050297095268 0
vertex 24.944088369076358 56.667106990588046 2
vertex 27.716385975338596 51.48050297095268 2
endloop
endfacet
facet normal 0.9569403357322095 0.29028467725446094 0
outer loop
vertex 29.42355841209691 45.85270966048387 0
vertex 27.716385975338596 51.48050297095268 0
vertex 27.716385975338596 51.48050297095268 2
endloop
endfacet
facet normal 0.9569403357322095 0.29028467725446094 0
outer loop
vertex 29.42355841209691 45.85270966048387 0
vertex 27.716385975338596 51.48050297095268 2
vertex 29.42355841209691 45.85270966048387 2
endloop
endfacet
facet normal 0.9951847266721969 0.09801714032956041 0
outer loop
vertex 30 40 0
vertex 29.42355841209691 45.85270966048387 0
vertex 29.42355841209691 45.85270966048387 2
endloop
endfacet
facet normal 0.9951847266721969 0.09801714032956041 0
outer loop
vertex 30 40 0
vertex 29.42355841209691 45.85270966048387 2
vertex 30 40 2
endloop
endfacet
facet normal 1 0 0
outer loop
vertex -12 40 0
vertex -12 40 2
vertex -12 30 2
endloop
endfacet
facet normal 1 0 0
outer loop
vertex -12 40 0
vertex -12 30 2
vertex -12 30 0
endloop
endfacet
facet normal -1 0 0
outer loop
vertex 12 30 2
vertex 12 40 2
vertex 12 40 0
endloop
endfacet
facet normal -1 0 0
outer loop
vertex 12 30 2
vertex 12 40 0
vertex 12.000000000000002 30 0
endloop
endfacet
facet normal 0 1 0
outer loop
vertex -12 30 2
vertex 12 30 2
vertex 12.000000000000002 30 0
endloop
endfacet
facet normal 0 1 0
outer loop
vertex -12 30 2
vertex 12.000000000000002 30 0
vertex -12 30 0
endloop
endfacet
facet normal 0 -1 0
outer loop
vertex 12 40 0
vertex 12 40 2
vertex -12 40 2
endloop
endfacet
facet normal 0 -1 0
outer loop
vertex 12 40 0
vertex -12 40 2
vertex -12 40 0
endloop
endfacet
facet normal 0.4713967368259979 -0.8819212643483549 0
outer loop
vertex 16.667106990588067 15.055911630923639 2
vertex 14.39076406701319 13.83918098903009 2
vertex 14.390764067013192 13.83918098903009 0
endloop
endfacet
facet normal 0.4713967368259979 -0.8819212643483549 0
outer loop
vertex 16.667106990588067 15.055911630923639 2
vertex 14.390764067013192 13.83918098903009 0
vertex 16.667106990588067 15.055911630923639 0
endloop
endfacet
facet normal -0.4713967368259979 -0.8819212643483549 0
outer loop
vertex -14.390764067013198 13.83918098903009 2
vertex -16.66710699058806 15.055911630923639 2
vertex -16.66710699058806 15.055911630923639 0
endloop
endfacet
facet normal -0.4713967368259979 -0.8819212643483549 0
outer loop
vertex -14.390764067013198 13.83918098903009 2
vertex -16.66710699058806 15.055911630923639 0
vertex -14.390764067013194 13.83918098903009 0
endloop
endfacet
endsolid csg.js
